<svg width="24.000000" height="24.000000" viewBox="0 0 24 24" fill="none" xmlns="http://www.w3.org/2000/svg" xmlns:xlink="http://www.w3.org/1999/xlink">
	<desc>
			Created with Pixso.
	</desc>
	<defs/>
	<path id="Squircle" d="M12 24C2.11 24 0 21.88 0 12C0 2.11 2.11 0 12 0C21.88 0 24 2.11 24 12C24 21.88 21.88 24 12 24ZM3.7 20.29Q5.41 22 12 22Q18.58 22 20.29 20.29Q22 18.58 22 12Q22 5.41 20.29 3.7Q18.58 2 12 2Q5.41 2 3.7 3.7Q2 5.41 2 12Q2 18.58 3.7 20.29Z" fill="#F8B319" fill-opacity="1.000000" fill-rule="evenodd"/>
	<path id="Polygon 1" d="M10.09 9.79C9.95 9.84 9.84 9.95 9.79 10.09L7.77 15.57C7.63 15.97 8.02 16.36 8.42 16.22L13.9 14.2C14.04 14.15 14.15 14.04 14.2 13.9L16.22 8.42C16.36 8.02 15.97 7.63 15.57 7.77L10.09 9.79ZM9.4 7.92C8.71 8.17 8.17 8.71 7.92 9.4L5.9 14.88C5.16 16.88 7.11 18.83 9.11 18.09L14.59 16.07C15.28 15.82 15.82 15.28 16.07 14.59L18.09 9.11C18.83 7.11 16.88 5.16 14.88 5.9L9.4 7.92Z" fill="#F8B319" fill-opacity="1.000000" fill-rule="evenodd"/>
</svg>
