<svg width="24" height="20" viewBox="0 0 24 20" fill="none" xmlns="http://www.w3.org/2000/svg">
<path d="M11.3655 3.57291L12 4.09381L12.6345 3.57291C13.7134 2.68719 15.0356 2 16.4 2C19.5758 2 22 4.34232 22 7.05386C22 10.0155 20.3176 12.4316 18.1875 14.303C16.0636 16.169 13.6187 17.3794 12.3959 17.9166C12.1427 18.0278 11.8573 18.0278 11.6041 17.9166C10.3814 17.3794 7.93638 16.169 5.8125 14.3029C3.68245 12.4315 2 10.0154 2 7.0537C2 4.34219 4.42412 2 7.6 2C8.96442 2 10.2866 2.68719 11.3655 3.57291Z" fill="#F8B319" stroke="#F8B319" stroke-width="2"/>
</svg>
