<svg width="24.000000" height="24.000000" viewBox="0 0 24 24" fill="none" xmlns="http://www.w3.org/2000/svg" xmlns:xlink="http://www.w3.org/1999/xlink">
	<desc>
			Created with Pixso.
	</desc>
	<defs/>
	<path id="Squircle" d="M0.22 8.99C-0.02 10.56 -0.3 14.73 0.73 19.43C1.3 22.02 2.77 23.2 5.87 23.6C5.91 23.61 5.95 23.61 6 23.62C6.66 23.7 7.33 23.77 8 23.83C10.66 24.05 13.29 24.05 16 23.83C16.66 23.78 17.32 23.71 18 23.63C18.07 23.62 18.14 23.61 18.21 23.6C21.31 23.21 22.83 22.03 23.35 19.43C24.25 14.83 23.98 10.74 23.87 9.1C23.87 9.06 23.86 9.02 23.86 8.99C23.79 7.87 17.77 3.28 14.35 0.75C12.97 -0.26 11.11 -0.26 9.73 0.76C6.34 3.29 0.38 7.87 0.22 8.99ZM18 21.61Q20.08 21.34 20.91 20.18Q21.26 19.69 21.39 19.04Q22.24 14.71 21.87 9.23Q21.87 9.16 21.87 9.12Q21.84 8.77 13.16 2.36Q12.61 1.95 12.05 1.95Q11.49 1.95 10.93 2.37Q2.26 8.82 2.19 9.29Q1.53 13.71 2.68 19Q2.84 19.7 3.23 20.22Q4.07 21.32 6 21.6L6 16.11Q6 15.54 6.15 15.01Q6.43 14.09 7.2 13.32Q7.98 12.54 8.9 12.26Q9.42 12.1 10 12.1L12 12.1L14 12.1Q14.57 12.1 15.09 12.26Q16.01 12.54 16.79 13.32Q17.56 14.09 17.84 15.01Q18 15.54 18 16.11L18 21.61ZM10 21.95Q11.99 22.04 14 21.95L14 16.11L14 16.1L12 16.1L10 16.1L10 16.11L10 21.95Z" fill="#FFFFFF" fill-opacity="1.000000" fill-rule="evenodd"/>
</svg>
