<svg width="24.000000" height="24.000000" viewBox="0 0 24 24" fill="none" xmlns="http://www.w3.org/2000/svg" xmlns:xlink="http://www.w3.org/1999/xlink">
	<desc>
			Created with Pixso.
	</desc>
	<defs/>
	<path id="Squircle" d="M0.22 8.99C-0.02 10.56 -0.3 14.73 0.73 19.43C1.3 22.02 2.77 23.2 5.87 23.6C5.91 23.61 5.95 23.61 6 23.62C6.66 23.7 7.33 23.77 8 23.83C10.66 24.05 13.29 24.05 16 23.83C16.66 23.78 17.32 23.71 18 23.63C18.07 23.62 18.14 23.61 18.21 23.6C21.31 23.21 22.83 22.03 23.35 19.43C24.25 14.83 23.98 10.74 23.87 9.1C23.87 9.06 23.86 9.02 23.86 8.99C23.79 7.87 17.77 3.28 14.35 0.75C12.97 -0.26 11.11 -0.26 9.73 0.76C6.34 3.29 0.38 7.87 0.22 8.99ZM18 21.61C19.38 21.43 20.35 20.96 20.91 20.18C21.14 19.85 21.3 19.47 21.39 19.04C21.95 16.15 22.12 12.88 21.87 9.23C21.87 9.18 21.87 9.14 21.87 9.12C21.85 8.88 18.95 6.63 13.16 2.36C12.79 2.09 12.42 1.95 12.05 1.95C11.67 1.95 11.3 2.09 10.93 2.37C5.15 6.67 2.24 8.98 2.19 9.29C1.75 12.24 1.91 15.47 2.68 19C2.79 19.47 2.97 19.87 3.23 20.22C3.79 20.95 4.71 21.41 6 21.6L6 16.11C6 15.73 6.05 15.36 6.15 15.01C6.34 14.4 6.69 13.83 7.2 13.32C7.72 12.8 8.28 12.45 8.9 12.26C9.25 12.16 9.61 12.1 10 12.1L12 12.1L14 12.1C14.38 12.1 14.74 12.16 15.09 12.26C15.71 12.45 16.27 12.8 16.79 13.32C17.3 13.83 17.65 14.4 17.84 15.01C17.94 15.36 18 15.73 18 16.11L18 21.61ZM10 21.95C11.32 22.01 12.66 22.01 14 21.95L14 16.11L14 16.1L12 16.1L10 16.1L10 16.11L10 21.95Z" fill="#F8B319" fill-opacity="1.000000" fill-rule="evenodd"/>
</svg>
