<svg width="24.000000" height="26.181824" viewBox="0 0 24 26.1818" fill="none" xmlns="http://www.w3.org/2000/svg" xmlns:xlink="http://www.w3.org/1999/xlink">
	<desc>
			Created with Pixso.
	</desc>
	<defs/>
	<path id="Squircle" d="M0 13.09C0 23.3 1.04 22.9 9.39 25.49C17.73 28.07 18.78 23.3 18.78 13.09C18.78 2.87 17.73 -1.9 9.39 0.69C1.04 3.27 0 2.87 0 13.09ZM8.43 23.1Q9.43 23.41 9.98 23.58Q12.58 24.38 14 24.11Q14.51 24.01 14.87 23.76Q15.22 23.51 15.5 23.05Q16.19 21.91 16.5 19.45Q16.65 18.22 16.72 16.58Q16.78 15.11 16.78 13.09Q16.78 11.06 16.72 9.6Q16.65 7.95 16.5 6.72Q16.19 4.26 15.5 3.13Q15.22 2.66 14.87 2.41Q14.51 2.16 14 2.06Q12.58 1.79 9.98 2.6Q9.43 2.77 8.43 3.07Q6.81 3.56 6.14 3.78Q5.13 4.12 4.5 4.39Q3.88 4.67 3.49 4.95Q3.16 5.2 2.94 5.5Q2.71 5.82 2.54 6.31Q2.35 6.89 2.23 7.77Q2.1 8.67 2.05 10Q2 11.23 2 13.09Q2 14.94 2.05 16.17Q2.1 17.5 2.23 18.41Q2.35 19.28 2.54 19.86Q2.71 20.35 2.94 20.67Q3.16 20.97 3.49 21.22Q3.88 21.5 4.5 21.78Q5.13 22.05 6.14 22.39Q6.81 22.61 8.43 23.1Z" fill="#F8B319" fill-opacity="1.000000" fill-rule="evenodd"/>
	<ellipse id="Ellipse 53" rx="1.043478" ry="1.047273" transform="matrix(-1 0 0 1 13.5652 13.2678)" fill="#F8B319" fill-opacity="1.000000"/>
	<path id="Squircle" d="M17.73 23.51Q18.81 23.51 19.56 23.44Q20.43 23.35 21.07 23.14Q21.8 22.89 22.32 22.45Q22.86 22 23.2 21.32Q23.49 20.72 23.66 19.89Q23.8 19.16 23.87 18.13Q23.92 17.27 23.94 15.96Q23.95 15.15 23.95 13.26L23.95 13.26Q23.95 11.35 23.94 10.54Q23.92 9.21 23.87 8.32Q23.8 7.27 23.66 6.53Q23.5 5.67 23.21 5.04Q22.88 4.34 22.36 3.86Q21.84 3.38 21.1 3.1Q20.45 2.86 19.58 2.75Q18.81 2.66 17.73 2.66L17.73 4.66Q18.69 4.66 19.34 4.74Q19.98 4.81 20.4 4.97Q20.77 5.11 21 5.33Q21.23 5.54 21.39 5.89Q21.58 6.28 21.69 6.9Q21.81 7.53 21.87 8.45Q21.93 9.28 21.94 10.56Q21.95 11.37 21.95 13.26L21.95 13.26Q21.95 15.14 21.94 15.93Q21.93 17.19 21.87 18Q21.81 18.9 21.7 19.5Q21.58 20.07 21.4 20.43Q21.25 20.74 21.03 20.92Q20.8 21.12 20.43 21.24Q20.01 21.38 19.36 21.45Q18.71 21.51 17.73 21.51L17.73 23.51ZM17.75 21.53L17.73 21.51C17.17 21.51 16.73 21.95 16.73 22.51C16.73 23.07 17.17 23.51 17.73 23.51L17.75 23.49L17.75 21.53ZM17.75 2.68L17.73 2.66C17.17 2.66 16.73 3.1 16.73 3.66C16.73 4.22 17.17 4.66 17.73 4.66L17.75 4.64L17.75 2.68Z" fill="#F8B319" fill-opacity="1.000000" fill-rule="evenodd"/>
</svg>
