<?xml version="1.0" encoding="UTF-8"?>
<svg version="1.1" xmlns="http://www.w3.org/2000/svg" width="512" height="512">
<path d="M0 0 C3.11522725 2.61655622 6.03934966 5.33136339 8.8125 8.3125 C9.47894531 8.97378906 10.14539063 9.63507813 10.83203125 10.31640625 C19.75078466 19.53903542 29.8125 34.89269362 29.8125 48.3125 C41.0325 48.3125 52.2525 48.3125 63.8125 48.3125 C64.8025 44.3525 65.7925 40.3925 66.8125 36.3125 C67.98970374 33.4590605 69.14018854 30.83452944 70.5625 28.125 C70.91030518 27.44646973 71.25811035 26.76793945 71.61645508 26.06884766 C74.46539419 20.65825741 77.80896556 15.93658228 81.8125 11.3125 C82.534375 10.3225 83.25625 9.3325 84 8.3125 C94.54670709 -4.00333215 113.82701799 -13.7983663 129.8125 -15.6875 C153.40655774 -17.43694354 175.49608543 -13.862045 194.07421875 1.7421875 C196.422425 3.86348843 198.65499118 5.99317802 200.8125 8.3125 C201.47894531 8.97378906 202.14539063 9.63507813 202.83203125 10.31640625 C211.75078466 19.53903542 221.8125 34.89269362 221.8125 48.3125 C222.96250488 48.29155273 224.11250977 48.27060547 225.29736328 48.24902344 C229.57995056 48.17640937 233.86248383 48.13062271 238.14550781 48.09277344 C239.99618696 48.07270661 241.84680309 48.04544655 243.69726562 48.01074219 C246.36343977 47.96200567 249.02877287 47.93948213 251.6953125 47.921875 C252.51742218 47.90122986 253.33953186 47.88058472 254.18655396 47.85931396 C259.54268479 47.85724028 262.63879775 48.65205135 266.8125 52.3125 C271.33750951 57.62361693 271.39619704 61.94932854 271.36753845 68.60955811 C271.37871738 69.6448513 271.3898963 70.68014449 271.40141398 71.7468102 C271.43375332 75.21513971 271.43750643 78.68289749 271.44116211 82.15136719 C271.45804245 84.63846931 271.4765196 87.12556103 271.49647522 89.61264038 C271.54465535 96.36897157 271.56644945 103.12507611 271.58032298 109.88153744 C271.58911698 114.10324738 271.60411792 118.32492086 271.62033272 122.54660797 C271.66427127 134.24426425 271.70127932 145.94188893 271.71095943 157.63962936 C271.71158614 158.38767628 271.71221284 159.13572319 271.71285853 159.90643819 C271.71410764 161.42278814 271.71535539 162.9391381 271.71660178 164.45548806 C271.71723013 165.20816528 271.71785847 165.9608425 271.71850586 166.73632812 C271.71912927 167.48992816 271.71975268 168.2435282 271.72039498 169.01996461 C271.73183051 181.22847265 271.79375551 193.43615476 271.87772279 205.64435872 C271.9633147 218.1900328 272.00752297 230.73529487 272.01015478 243.28126645 C272.01256939 250.3208902 272.03244424 257.35947998 272.09779167 264.3988266 C272.15902615 271.0214011 272.16345669 277.64232964 272.12985802 284.26521683 C272.12650215 286.69280775 272.14188571 289.1205095 272.17759323 291.54784012 C272.44444248 310.84254987 272.44444248 310.84254987 268.40017891 315.92996979 C265.82984433 318.53360404 262.953887 320.43919693 259.8125 322.3125 C258.61804364 323.25767149 257.43555093 324.2184588 256.2734375 325.203125 C255.25507813 325.98171875 254.23671875 326.7603125 253.1875 327.5625 C247.81107664 331.71399189 242.54128763 335.97664742 237.3125 340.3125 C231.62136334 345.02590079 225.87924258 349.65703854 220.05078125 354.19921875 C214.91029092 358.21302627 209.85544139 362.32769628 204.80395508 366.45263672 C199.63755215 370.66323303 194.41574068 374.79808437 189.15234375 378.88671875 C186.93079431 380.61752212 184.8062031 382.3187969 182.8125 384.3125 C180.32679677 384.56549966 180.32679677 384.56549966 177.1170845 384.56976891 C175.89761415 384.5762178 174.67814379 384.58266669 173.42171979 384.589311 C172.05615018 384.58636827 170.69058098 384.58323279 169.32501221 384.57992554 C167.88387969 384.58365892 166.44274921 384.58825919 165.00162196 384.59365618 C161.02715047 384.60594055 157.0527628 384.60561935 153.07827663 384.60326743 C148.79729845 384.60286062 144.51634763 384.61388547 140.23538208 384.62338257 C131.84217244 384.64002404 123.44899089 384.64549356 115.05576614 384.64660732 C108.23473143 384.64755645 101.41370602 384.65165996 94.59267426 384.65800858 C75.26674487 384.67563071 55.94083774 384.6848461 36.61490026 384.68334763 C35.57215896 384.68326772 34.52941765 384.6831878 33.45507812 384.68310547 C31.88906267 384.68298283 31.88906267 384.68298283 30.29141054 384.68285771 C13.37265308 384.68204486 -3.54601534 384.70117974 -20.46474704 384.7293822 C-37.82409619 384.75809143 -55.18340189 384.77192353 -72.54277539 384.77019465 C-82.29378087 384.76953 -92.04469305 384.77505494 -101.79567719 384.79655075 C-110.09880791 384.81473693 -118.40180307 384.81913115 -126.70494506 384.8055319 C-130.9426548 384.79898883 -135.18010427 384.798933 -139.41778946 384.8162384 C-143.29666988 384.83191577 -147.17508253 384.82916064 -151.05395117 384.81167014 C-152.45775942 384.80858836 -153.86160211 384.81227685 -155.26536974 384.82339029 C-165.89712727 384.90199049 -165.89712727 384.90199049 -170.8122139 382.65659523 C-176.52308691 377.02071408 -177.64832734 373.17834507 -177.72247362 365.29528046 C-177.71355073 364.08731056 -177.70462785 362.87934067 -177.69543457 361.63476562 C-177.70167453 360.34346992 -177.7079145 359.05217422 -177.71434355 357.72174835 C-177.73103081 354.14384894 -177.72279356 350.56637668 -177.71039867 346.9884758 C-177.70134792 343.12746039 -177.71531801 339.2665184 -177.72631836 335.40551758 C-177.74410795 327.8443362 -177.74026167 320.28331362 -177.7286678 312.72212601 C-177.71963547 306.57718858 -177.7184086 300.43229567 -177.72276306 294.28735352 C-177.72337599 293.41288464 -177.72398893 292.53841577 -177.72462043 291.63744783 C-177.72589933 289.86099941 -177.72719618 288.084551 -177.7285108 286.30810261 C-177.73991788 269.64903372 -177.72680088 252.99005287 -177.70530933 236.33099842 C-177.68743823 222.03572569 -177.6905423 207.74058289 -177.70898438 193.4453125 C-177.73038883 176.84599417 -177.73881923 160.246753 -177.72653532 143.64742279 C-177.72526112 141.87749737 -177.72400364 140.10757193 -177.72276306 138.33764648 C-177.72214596 137.46680184 -177.72152886 136.59595719 -177.72089306 135.69872332 C-177.71743888 129.56093017 -177.72326996 123.42318596 -177.73268127 117.28540039 C-177.74389791 109.80579622 -177.74086832 102.32635998 -177.7195583 94.84677505 C-177.70904329 91.03029386 -177.70493352 87.21409267 -177.71815491 83.39761353 C-177.73226667 79.26157652 -177.71542113 75.12624697 -177.69543457 70.99023438 C-177.70435746 69.78226448 -177.71328034 68.57429459 -177.72247362 67.32971954 C-177.66318037 61.02579608 -177.49810267 57.06468156 -173.1875 52.3125 C-168.24197772 47.97514451 -164.33537133 47.76454438 -158.0703125 47.921875 C-157.21315643 47.92753479 -156.35600037 47.93319458 -155.47286987 47.93902588 C-152.7521632 47.96130361 -150.03280432 48.01148226 -147.3125 48.0625 C-145.46095661 48.0825762 -143.60939244 48.100825 -141.7578125 48.1171875 C-137.2338607 48.16113999 -132.71090836 48.23010641 -128.1875 48.3125 C-128.01444336 47.54123779 -127.84138672 46.76997559 -127.66308594 45.9753418 C-126.17162418 39.63466429 -124.4651439 33.89271721 -121.4375 28.125 C-121.08969482 27.44646973 -120.74188965 26.76793945 -120.38354492 26.06884766 C-117.53460581 20.65825741 -114.19103444 15.93658228 -110.1875 11.3125 C-109.1046875 9.8275 -109.1046875 9.8275 -108 8.3125 C-81.59586484 -22.5207159 -30.98214671 -23.5320451 0 0 Z M-87.1875 35.3125 C-90.43582038 39.72515341 -92.09405517 42.84527584 -93.1875 48.3125 C-64.1475 48.3125 -35.1075 48.3125 -5.1875 48.3125 C-8.35968659 37.20984695 -15.80423713 28.76733242 -25.73828125 22.7734375 C-47.31108598 11.57783929 -71.5310395 16.70800368 -87.1875 35.3125 Z M104.8125 35.3125 C101.56417962 39.72515341 99.90594483 42.84527584 98.8125 48.3125 C127.8525 48.3125 156.8925 48.3125 186.8125 48.3125 C183.64031341 37.20984695 176.19576287 28.76733242 166.26171875 22.7734375 C144.68891402 11.57783929 120.4689605 16.70800368 104.8125 35.3125 Z " fill="#FED065" transform="translate(209.1875,63.6875)"/>
<path d="M0 0 C38 0 38 0 44 4 C48.24627398 8.88404988 48.56926195 12.671826 48.48101807 18.84579468 C48.48443577 19.72480143 48.48785347 20.60380819 48.49137473 21.50945151 C48.4979521 24.44852955 48.47597983 27.38668999 48.45410156 30.32568359 C48.45297305 32.43491596 48.45360701 34.5441499 48.45587158 36.65338135 C48.45701952 42.37612172 48.43349696 48.09852694 48.40557575 53.8211894 C48.3805756 59.80294567 48.37822118 65.78470956 48.37347412 71.76651001 C48.36104031 83.09241066 48.32821306 94.41815693 48.28807616 105.74398959 C48.2433712 118.6386621 48.22137459 131.53334198 48.20129442 144.42807269 C48.15948091 170.95213406 48.08912082 197.47605838 48 224 C47.40254408 224.00146656 46.80508816 224.00293312 46.18952751 224.00444412 C31.64160417 224.04152101 17.09388391 224.10054736 2.54615593 224.18390274 C-4.48908996 224.22368575 -11.52422412 224.25608189 -18.55957031 224.27099609 C-25.34836505 224.28540849 -32.13680095 224.32052806 -38.92544174 224.36830902 C-41.51616278 224.38315277 -44.10693326 224.39104272 -46.69769669 224.39188385 C-50.32504501 224.39424611 -53.95143061 224.42126864 -57.57861328 224.45410156 C-58.65107803 224.4490712 -59.72354279 224.44404083 -60.82850647 224.43885803 C-66.85830257 224.52336602 -70.43743777 224.92864257 -75 229 C-76.39355764 230.95851344 -77.74282547 232.95127113 -79 235 C-79.33 235 -79.66 235 -80 235 C-80.5765754 219.60330145 -80.5765754 219.60330145 -77 214 C-73.96063107 210.75630375 -71.39565496 209.09891374 -67 208 C-44.89 208 -22.78 208 0 208 C0 139.36 0 70.72 0 0 Z " fill="#CCA752" transform="translate(432,112)"/>
<path d="M0 0 C0.98720535 -0.00137466 1.97441071 -0.00274933 2.99153137 -0.00416565 C4.07837723 -0.00057037 5.16522308 0.0030249 6.28500366 0.00672913 C7.42646347 0.0065831 8.56792328 0.00643707 9.74397278 0.00628662 C13.53159459 0.00698546 17.31916774 0.01477654 21.10678101 0.02259827 C23.7270912 0.02446255 26.34740174 0.0258864 28.9677124 0.02688599 C35.16899011 0.029997 41.37025025 0.0382073 47.57152021 0.04823548 C54.63068014 0.05940374 61.6898409 0.06490886 68.74900746 0.06993091 C83.27192022 0.08039009 97.79481912 0.0979851 112.31771851 0.12025452 C112.59164995 5.6333643 112.7901209 11.14244203 112.92196655 16.66078186 C112.97696263 18.53322901 113.05179484 20.40521069 113.14755249 22.27601624 C113.96510455 38.67077686 113.96510455 38.67077686 109.94458008 43.53913879 C107.18769115 46.05375385 104.45618451 48.11282451 101.31771851 50.12025452 C100.12706467 51.07021166 98.94523443 52.03150731 97.77865601 53.01087952 C96.25111694 54.17877014 96.25111694 54.17877014 94.69271851 55.37025452 C89.31629514 59.5217464 84.04650613 63.78440193 78.81771851 68.12025452 C73.12658184 72.8336553 67.38446108 77.46479306 61.55599976 82.00697327 C56.41550943 86.02078078 51.36065989 90.13545079 46.30917358 94.26039124 C41.14277065 98.47098754 35.92095919 102.60583889 30.65756226 106.69447327 C28.43601281 108.42527663 26.31142161 110.12655141 24.31771851 112.12025452 C21.304629 112.29571934 18.38461397 112.35152897 15.37240601 112.31556702 C14.4873941 112.31273712 13.6023822 112.30990723 12.69055176 112.30699158 C9.85780438 112.29577692 7.02537067 112.27067022 4.19271851 112.24525452 C2.27475431 112.23522637 0.35678518 112.22610023 -1.56118774 112.21791077 C-6.26834025 112.19583341 -10.97525766 112.16129497 -15.68228149 112.12025452 C-15.77497219 99.05517531 -15.84604207 85.99017437 -15.88953018 72.9248333 C-15.91040258 66.8580196 -15.9387145 60.79143091 -15.98403931 54.7247467 C-16.02750851 48.86977553 -16.05142122 43.01502076 -16.06179047 37.15990067 C-16.06917983 34.92637348 -16.08360948 32.6928581 -16.10520172 30.45942307 C-16.13424925 27.330319 -16.13823683 24.20210849 -16.13638306 21.07289124 C-16.15076416 20.1500383 -16.16514526 19.22718536 -16.17996216 18.27636719 C-16.14431609 12.71371917 -15.41051143 9.52373401 -11.68228149 5.12025452 C-7.6386261 1.55798667 -5.35260223 -0.00573084 0 0 Z " fill="#ADB5B0" transform="translate(367.6822814941406,335.87974548339844)"/>
<path d="M0 0 C0 10.89 0 21.78 0 33 C-39.39001874 33.09039932 -78.78001024 33.16202429 -118.17011181 33.20426132 C-122.81897446 33.20926423 -127.46783689 33.21444151 -132.11669922 33.21972656 C-133.04221594 33.2207758 -133.96773265 33.22182505 -134.92129533 33.22290608 C-149.91314933 33.24031804 -164.90494207 33.27186009 -179.8967597 33.30861118 C-195.27625362 33.34599859 -210.65571543 33.36823119 -226.03525293 33.37635398 C-235.52760672 33.38184632 -245.01978736 33.39920219 -254.51208787 33.43166587 C-261.01862022 33.4527866 -267.52506286 33.45920559 -274.03162701 33.45400551 C-277.78733334 33.45143991 -281.54273677 33.4554118 -285.29838943 33.4768219 C-289.36901657 33.49985833 -293.43899673 33.49196382 -297.50967407 33.48101807 C-298.698391 33.49266943 -299.88710792 33.5043208 -301.11184657 33.51632524 C-307.19696074 33.471937 -311.37251089 33.3943334 -316 29 C-320.95040182 23.67258082 -320.48037405 18.49191866 -320.25 11.625 C-320.23195313 10.60277344 -320.21390625 9.58054687 -320.1953125 8.52734375 C-320.14839491 6.01725251 -320.08276729 3.50912236 -320 1 C-279.81155487 0.87253182 -239.62310953 0.74513006 -199.43466391 0.61781773 C-194.69309625 0.60279694 -189.95152859 0.58777559 -185.20996094 0.57275391 C-184.26597591 0.56976329 -183.32199089 0.56677268 -182.34940025 0.56369144 C-167.05230081 0.51522777 -151.75520151 0.4667194 -136.45810226 0.41819459 C-120.76899092 0.36842725 -105.07987944 0.31870776 -89.39076781 0.26903296 C-79.70501393 0.23836444 -70.01926017 0.20765833 -60.33350655 0.17690456 C-53.69712167 0.15583658 -47.06073663 0.13481496 -40.42435148 0.11383021 C-36.59205158 0.10171081 -32.75975175 0.08957057 -28.92745209 0.07737541 C-24.77750164 0.06416996 -20.62755089 0.05106193 -16.4776001 0.03796387 C-15.2597118 0.03407292 -14.04182351 0.03018197 -12.7870295 0.02617311 C-11.67831231 0.02268972 -10.56959511 0.01920632 -9.42728043 0.01561737 C-8.46886631 0.01257961 -7.5104522 0.00954185 -6.52299523 0.00641203 C-4.34866946 0.00088612 -2.1743328 0 0 0 Z " fill="#CCA752" transform="translate(352,415)"/>
<path d="M0 0 C3.11522725 2.61655622 6.03934966 5.33136339 8.8125 8.3125 C9.47894531 8.97378906 10.14539063 9.63507813 10.83203125 10.31640625 C19.75078466 19.53903542 29.8125 34.89269362 29.8125 48.3125 C18.2625 48.3125 6.7125 48.3125 -5.1875 48.3125 C-6.8375 45.0125 -8.4875 41.7125 -10.1875 38.3125 C-16.70356183 29.12854115 -26.15010931 21.56954946 -37.19921875 18.75 C-50.9033979 16.74363652 -63.61292384 17.79610947 -75.4375 25.5 C-85.41623697 33.03202742 -92.85515062 43.16996664 -96.1875 55.3125 C-97.40709326 69.42493627 -94.78262904 82.49722851 -86.21484375 93.94921875 C-77.53638129 104.1888861 -66.5496463 110.09653385 -53.125 111.671875 C-51.26977326 111.8029508 -49.41431391 111.93079327 -47.55859375 112.0546875 C-42.59616464 112.59425969 -39.54025302 114.6986438 -36.375 118.375 C-32.68592215 123.32890454 -32.51399921 127.23228452 -33.1875 133.3125 C-35.39992439 137.73734878 -38.13549616 140.50726657 -42.1875 143.3125 C-56.15406297 147.96802099 -72.6739481 142.28347601 -85.41796875 136.26953125 C-90.8164123 133.56827027 -95.52837801 130.13145245 -100.1875 126.3125 C-100.89132812 125.77109375 -101.59515625 125.2296875 -102.3203125 124.671875 C-116.7501213 113.01485299 -124.26914608 95.98722547 -128.1875 78.3125 C-128.38214844 77.508125 -128.57679688 76.70375 -128.77734375 75.875 C-132.03268028 55.53689749 -127.06093567 33.41141194 -115.0390625 16.71777344 C-103.01057292 0.81364475 -84.57946102 -12.07563462 -64.56738281 -15.40625 C-41.20306202 -18.16740075 -18.99442979 -14.42694667 0 0 Z " fill="#073B4C" transform="translate(401.1875,63.6875)"/>
<path d="M0 0 C3.11522725 2.61655622 6.03934966 5.33136339 8.8125 8.3125 C9.47894531 8.97378906 10.14539063 9.63507813 10.83203125 10.31640625 C19.75078466 19.53903542 29.8125 34.89269362 29.8125 48.3125 C18.2625 48.3125 6.7125 48.3125 -5.1875 48.3125 C-6.8375 45.0125 -8.4875 41.7125 -10.1875 38.3125 C-16.70356183 29.12854115 -26.15010931 21.56954946 -37.19921875 18.75 C-50.9033979 16.74363652 -63.61292384 17.79610947 -75.4375 25.5 C-85.41623697 33.03202742 -92.85515062 43.16996664 -96.1875 55.3125 C-97.40709326 69.42493627 -94.78262904 82.49722851 -86.21484375 93.94921875 C-77.53638129 104.1888861 -66.5496463 110.09653385 -53.125 111.671875 C-51.26977326 111.8029508 -49.41431391 111.93079327 -47.55859375 112.0546875 C-42.59616464 112.59425969 -39.54025302 114.6986438 -36.375 118.375 C-32.68592215 123.32890454 -32.51399921 127.23228452 -33.1875 133.3125 C-35.39992439 137.73734878 -38.13549616 140.50726657 -42.1875 143.3125 C-56.15406297 147.96802099 -72.6739481 142.28347601 -85.41796875 136.26953125 C-90.8164123 133.56827027 -95.52837801 130.13145245 -100.1875 126.3125 C-100.89132813 125.77109375 -101.59515625 125.2296875 -102.3203125 124.671875 C-116.7501213 113.01485299 -124.26914608 95.98722547 -128.1875 78.3125 C-128.38214844 77.508125 -128.57679688 76.70375 -128.77734375 75.875 C-132.03268028 55.53689749 -127.06093567 33.41141194 -115.0390625 16.71777344 C-103.01057292 0.81364475 -84.57946102 -12.07563462 -64.56738281 -15.40625 C-41.20306202 -18.16740075 -18.99442979 -14.42694667 0 0 Z " fill="#073B4C" transform="translate(209.1875,63.6875)"/>
<path d="M0 0 C0.65378128 -0.00014603 1.30756256 -0.00029205 1.9811554 -0.0004425 C4.14551086 0.00025504 6.30978063 0.00803999 8.47412109 0.01586914 C9.97341871 0.01773388 11.47271694 0.01915752 12.97201538 0.02015686 C16.92087482 0.0239776 20.86969756 0.03380411 24.81854248 0.04486084 C28.84695947 0.05508448 32.87538238 0.05965653 36.90380859 0.06469727 C44.81007545 0.07542677 52.71631246 0.09249789 60.62255859 0.11352539 C60.48507576 1.7014439 60.3414654 3.28883257 60.1953125 4.87597656 C60.07635117 6.20202156 60.07635117 6.20202156 59.95498657 7.55485535 C58.00016909 22.60092025 47.47069181 38.1971201 37.62255859 49.11352539 C36.92388672 49.89469727 36.22521484 50.67586914 35.50537109 51.48071289 C23.28026107 64.42231288 5.97933012 74.04592682 -11.37744141 78.11352539 C-13.37728745 78.13834044 -15.37763398 78.14127895 -17.37744141 78.11352539 C-17.47025994 69.4815072 -17.54126607 60.8496617 -17.58469009 52.21725273 C-17.60553511 48.20853887 -17.63379547 44.20016729 -17.67919922 40.19165039 C-17.7227684 36.3207273 -17.74660172 32.45013274 -17.75695038 28.57898331 C-17.76432201 27.10461381 -17.77871732 25.63026161 -17.80036163 24.15603256 C-17.82954498 22.0853208 -17.8333915 20.01595379 -17.83154297 17.94506836 C-17.84486664 16.17968216 -17.84486664 16.17968216 -17.85845947 14.37863159 C-17.10197009 9.24365154 -14.57857105 6.17166341 -10.75244141 2.80102539 C-6.88356068 0.05208382 -4.74647324 -0.00888853 0 0 Z " fill="#D7E1DB" transform="translate(369.37744140625,335.886474609375)"/>
<path d="M0 0 C1.37498909 0.22685738 1.37498909 0.22685738 2.77775574 0.45829773 C5.78070339 0.95588909 8.78171657 1.46418256 11.78271484 1.97338867 C13.88294097 2.3253127 15.98323303 2.67684349 18.08358765 3.02799988 C22.47371776 3.76378785 26.86288571 4.50501909 31.25146484 5.25 C36.86602579 6.2025438 42.48292727 7.14038776 48.10065651 8.07404041 C52.43407481 8.79610018 56.76605882 9.52648454 61.09766769 10.25931358 C63.16799284 10.60844575 65.23877441 10.95488277 67.31001663 11.29853249 C70.20689423 11.78034142 73.10162546 12.27348125 75.99609375 12.76953125 C76.84510757 12.90835724 77.6941214 13.04718323 78.56886292 13.19021606 C85.06786487 14.32311035 91.61503725 15.68385218 95.80615234 21.20385742 C98.33838081 24.92051533 99.21419728 27.8508093 98.89599609 32.33666992 C97.73313709 37.28097412 94.96348272 41.08068343 91.30615234 44.51635742 C83.94242658 48.55452962 74.58835761 46.50553774 66.72143555 45.17358398 C65.80316986 45.02395203 64.88490417 44.87432007 63.93881226 44.72015381 C60.93101914 44.22765886 57.92518682 43.72426742 54.91943359 43.21948242 C52.81678367 42.87012041 50.71409649 42.52098253 48.6113739 42.17205811 C44.21699347 41.44081197 39.8236697 40.70355259 35.4309082 39.96264648 C29.80788235 39.01522021 24.1817333 38.08796814 18.55451679 37.16580582 C14.21622361 36.45169115 9.88022447 35.72435046 5.54475975 34.9932785 C3.47114848 34.64574695 1.39674449 34.30291077 -0.678442 33.96491241 C-3.57891971 33.49098113 -6.47570611 32.99866843 -9.37231445 32.50170898 C-10.22492355 32.36647827 -11.07753265 32.23124756 -11.95597839 32.09191895 C-19.40408836 30.77844617 -24.18517918 27.83642787 -28.63134766 21.57885742 C-30.48737009 17.86681255 -30.08010366 13.63012692 -29.63134766 9.57885742 C-23.04358567 -3.59666655 -12.49994314 -2.14354974 0 0 Z " fill="#0A3C4C" transform="translate(221.63134765625,337.421142578125)"/>
<path d="M0 0 C4.98669007 2.49334503 8.49675474 5.99350949 11 11 C11.52256729 15.76307238 11.5480956 19.78465759 9.5625 24.1875 C3.35510065 31.00049928 -4.70932442 35.95075203 -12.36328125 40.9921875 C-13.79488838 41.93930099 -13.79488838 41.93930099 -15.25541687 42.9055481 C-17.25505004 44.22668147 -19.25594703 45.5459038 -21.25805664 46.86328125 C-24.32574668 48.88372453 -27.38663717 50.91419263 -30.44726562 52.9453125 C-32.3980346 54.23238171 -34.34919274 55.51886129 -36.30078125 56.8046875 C-37.21434891 57.41190643 -38.12791656 58.01912537 -39.06916809 58.64474487 C-39.92072983 59.20267731 -40.77229156 59.76060974 -41.6496582 60.33544922 C-42.39528519 60.82729706 -43.14091217 61.3191449 -43.90913391 61.82589722 C-48.26918882 64.27423795 -53.07220284 64.68494478 -58 64 C-63.29112204 61.25268663 -67.09375244 57.71874267 -69 52 C-69.51939891 47.52976346 -69.45937569 43.99864281 -67.5625 39.875 C-61.40645546 32.96821832 -53.26034779 28.0406336 -45.56640625 23.0078125 C-44.60725815 22.3764035 -43.64811005 21.74499451 -42.65989685 21.0944519 C-40.65177465 19.77345759 -38.64248701 18.45423336 -36.63208008 17.13671875 C-33.54450341 15.11320553 -30.46044125 13.08442431 -27.37695312 11.0546875 C-25.41947019 9.76792585 -23.46179484 8.48145684 -21.50390625 7.1953125 C-20.58001602 6.58809357 -19.65612579 5.98087463 -18.70423889 5.35525513 C-17.85252609 4.79732269 -17.00081329 4.23939026 -16.12329102 3.66455078 C-15.37322281 3.17270294 -14.6231546 2.6808551 -13.85035706 2.17410278 C-9.38413618 -0.65983802 -5.19148508 -0.57505681 0 0 Z " fill="#0A3C4C" transform="translate(213,224)"/>
<path d="M0 0 C1.89226083 1.06503855 3.66028242 2.22534455 5.4414978 3.46716309 C6.1158638 3.91287659 6.7902298 4.35859009 7.48503113 4.81781006 C8.93673734 5.78053432 10.38239699 6.75242772 11.82241821 7.73254395 C14.11738223 9.29062823 16.43094229 10.81672748 18.7515564 12.33630371 C22.79201381 14.98773315 26.80983758 17.6710662 30.81869507 20.36999512 C33.29616583 22.03449558 35.7818629 23.68623969 38.26766968 25.33825684 C39.8651945 26.41170268 41.46221888 27.48589378 43.0586853 28.56091309 C43.79201584 29.04541931 44.52534637 29.52992554 45.28089905 30.02911377 C50.19589127 33.36731701 54.36497549 36.83755596 57.07821655 42.26403809 C57.88059922 47.72836565 57.73525721 52.0862923 54.51571655 56.70153809 C50.48123627 61.37851172 46.45779453 63.0589605 40.30770874 63.58898926 C35.55291091 63.51381216 32.62147055 61.70552221 28.78134155 59.06481934 C27.76333466 58.39655876 27.76333466 58.39655876 26.72476196 57.71479797 C25.2621922 56.75098772 23.80519865 55.77867212 22.35336304 54.79876709 C20.04203149 53.23962899 17.7157695 51.70534293 15.38485718 50.17565918 C11.33380847 47.50977755 7.30406333 44.81372363 3.2828064 42.10314941 C0.79386755 40.42842579 -1.70256063 38.76525343 -4.1991272 37.10192871 C-5.7998571 36.02515236 -7.40013503 34.94770373 -8.99990845 33.86950684 C-10.10764618 33.13500557 -10.10764618 33.13500557 -11.23776245 32.38566589 C-16.2409127 28.98741079 -20.8969712 25.16974047 -22.92178345 19.26403809 C-23.55632687 12.81284665 -22.67998058 9.54582866 -18.92178345 4.26403809 C-13.61072675 -0.65840471 -7.01393461 -2.6860408 0 0 Z " fill="#0A3D4C" transform="translate(310.9217834472656,224.7359619140625)"/>
<path d="M0 0 C5.67476113 1.96434039 9.31400331 5.62800662 12 11 C12.59057744 16.67862925 12.29370905 21.16922672 9 26 C5.00950931 29.92664284 1.88359358 32.15032079 -3.75 32.3125 C-8.6322451 32.25622052 -11.25873246 31.29587855 -15 28 C-19.48735572 23.14880463 -20.37944978 19.62737243 -20.28125 13.0234375 C-19.64340739 8.4345143 -16.71392374 5.62893282 -13.375 2.6875 C-8.92314854 -0.47565762 -5.3540278 -0.48837416 0 0 Z " fill="#0B3D4C" transform="translate(228,272)"/>
<path d="M0 0 C5.67476113 1.96434039 9.31400331 5.62800662 12 11 C12.3962444 16.84460492 11.95926533 20.77196458 9 26 C4.7026008 30.65852518 1.25564586 31.81809308 -4.875 32.3125 C-9.23455451 32.24767391 -11.6384369 30.82676897 -15 28 C-19.3022759 23.23261319 -20.36282503 19.56252705 -20.28125 13.28125 C-19.69180611 8.50020514 -16.85179203 5.75038822 -13.375 2.6875 C-8.92314854 -0.47565762 -5.3540278 -0.48837416 0 0 Z " fill="#0A3D4C" transform="translate(292,272)"/>
</svg>
