<svg width="24" height="27" viewBox="0 0 24 27" fill="none" xmlns="http://www.w3.org/2000/svg">
<path d="M21.53 8.04375C21.378 7.94501 21.2055 7.89303 21.03 7.89303C20.8545 7.89303 20.682 7.94501 20.53 8.04375L17 10.0013C16.9715 9.12777 16.6429 8.30078 16.0834 7.69437C15.5238 7.08796 14.777 6.74941 14 6.75H5C4.20435 6.75 3.44129 7.10558 2.87868 7.73852C2.31607 8.37145 2 9.2299 2 10.125V16.875C2 17.7701 2.31607 18.6286 2.87868 19.2615C3.44129 19.8944 4.20435 20.25 5 20.25H14C14.777 20.2506 15.5238 19.912 16.0834 19.3056C16.6429 18.6992 16.9715 17.8722 17 16.9988L20.56 19.0013C20.6963 19.0799 20.8468 19.1222 21 19.125C21.1872 19.1257 21.3709 19.0672 21.53 18.9563C21.6741 18.8549 21.7929 18.7139 21.8751 18.5466C21.9574 18.3793 22.0003 18.1912 22 18V9C22.0003 8.80881 21.9574 8.62068 21.8751 8.45337C21.7929 8.28606 21.6741 8.14508 21.53 8.04375V8.04375ZM15 16.875C15 17.1734 14.8946 17.4595 14.7071 17.6705C14.5196 17.8815 14.2652 18 14 18H5C4.73478 18 4.48043 17.8815 4.29289 17.6705C4.10536 17.4595 4 17.1734 4 16.875V10.125C4 9.82663 4.10536 9.54048 4.29289 9.32951C4.48043 9.11853 4.73478 9 5 9H14C14.2652 9 14.5196 9.11853 14.7071 9.32951C14.8946 9.54048 15 9.82663 15 10.125V16.875ZM20 16.1775L17 14.49V12.51L20 10.8225V16.1775Z" fill="white"/>
</svg>
