<svg width="24.000000" height="24.000000" viewBox="0 0 24 24" fill="none" xmlns="http://www.w3.org/2000/svg" xmlns:xlink="http://www.w3.org/1999/xlink">
	<desc>
			Created with Pixso.
	</desc>
	<defs/>
	<path id="Squircle" d="M12 24C2.11 24 0 21.88 0 12C0 2.11 2.11 0 12 0C21.88 0 24 2.11 24 12C24 21.88 21.88 24 12 24ZM3.7 20.29Q5.41 22 12 22Q18.58 22 20.29 20.29Q22 18.58 22 12Q22 5.41 20.29 3.7Q18.58 2 12 2Q5.41 2 3.7 3.7Q2 5.41 2 12Q2 18.58 3.7 20.29Z" fill="#F9F9F9" fill-opacity="1.000000" fill-rule="evenodd"/>
	<path id="Vector 151" d="M12 6C12 6 12 10 12 11C12 12 12 12 13 12C14 12 18 12 18 12" stroke="#F9F9F9" stroke-opacity="1.000000" stroke-width="2.000000" stroke-linejoin="round" stroke-linecap="round"/>
</svg>
