<svg width="31" height="31" viewBox="0 0 31 31" fill="none" xmlns="http://www.w3.org/2000/svg">
<path fill-rule="evenodd" clip-rule="evenodd" d="M14.7267 24.778L9.30306 27.7577C8.57047 28.1602 7.66435 27.8658 7.2792 27.1003C7.12583 26.7954 7.07291 26.4462 7.12862 26.1068L8.16444 19.7956C8.24782 19.2876 8.08665 18.7692 7.73344 18.4094L3.34564 13.9399C2.75295 13.3362 2.74082 12.3446 3.31855 11.7253C3.5486 11.4787 3.85004 11.3181 4.1762 11.2686L10.24 10.3478C10.7281 10.2737 11.1501 9.95334 11.3684 9.49112L14.0802 3.74907C14.4465 2.97346 15.3451 2.65502 16.0873 3.0378C16.3829 3.19023 16.6221 3.44022 16.7679 3.74907L19.4797 9.49112C19.698 9.95334 20.12 10.2737 20.6081 10.3478L26.6719 11.2686C27.491 11.393 28.0585 12.1877 27.9395 13.0436C27.8921 13.3845 27.7385 13.6995 27.5025 13.9399L23.1147 18.4094C22.7615 18.7692 22.6003 19.2876 22.6837 19.7956L23.7195 26.1068C23.8594 26.9592 23.3115 27.7688 22.4958 27.9151C22.1709 27.9733 21.8368 27.918 21.5451 27.7577L16.1214 24.778C15.6848 24.5381 15.1633 24.5381 14.7267 24.778Z" fill="#F8B319"/>
</svg>
