<svg width="24.000000" height="24.000000" viewBox="0 0 24 24" fill="none" xmlns="http://www.w3.org/2000/svg" xmlns:xlink="http://www.w3.org/1999/xlink">
	<desc>
			Created with Pixso.
	</desc>
	<defs/>
	<path id="Star 1" d="M8.04 2.35Q7.73 2.95 7.6 3.65Q7.58 3.76 7.52 3.84Q7.46 3.92 7.37 3.98Q7.27 4.03 7.17 4.04Q7.08 4.05 6.97 4.01Q6.31 3.78 5.63 3.75Q5.48 3.74 5.32 3.74Q4.91 3.76 4.51 3.84Q4.14 3.93 3.78 4.07Q3.52 4.18 3.29 4.32Q2.87 4.55 2.51 4.88Q2.29 5.08 2.1 5.3Q1.83 5.62 1.61 6Q1.4 6.37 1.25 6.77Q1.16 7.05 1.09 7.34Q0.99 7.81 0.99 8.29Q1 8.56 1.03 8.83Q1.08 9.22 1.2 9.58Q1.32 9.97 1.52 10.34Q1.59 10.47 1.67 10.6Q2.04 11.17 2.57 11.63Q2.66 11.7 2.7 11.79Q2.74 11.88 2.74 12Q2.74 12.11 2.7 12.2Q2.66 12.29 2.57 12.36Q2.04 12.82 1.67 13.39Q1.59 13.52 1.52 13.65Q1.32 14.02 1.2 14.41Q1.08 14.77 1.03 15.16Q1 15.43 0.99 15.7Q0.99 16.18 1.09 16.65Q1.16 16.94 1.25 17.22Q1.4 17.62 1.61 17.99Q1.83 18.37 2.1 18.69Q2.29 18.91 2.51 19.11Q2.87 19.44 3.29 19.67Q3.52 19.81 3.78 19.92Q4.14 20.06 4.51 20.15Q4.91 20.23 5.32 20.25Q5.48 20.25 5.63 20.24Q6.31 20.21 6.97 19.98Q7.08 19.94 7.17 19.95Q7.27 19.96 7.37 20.01Q7.46 20.07 7.52 20.15Q7.58 20.23 7.6 20.34Q7.73 21.04 8.04 21.64Q8.11 21.77 8.19 21.9Q8.41 22.26 8.68 22.56Q8.94 22.84 9.25 23.08Q9.47 23.25 9.71 23.38Q10.11 23.62 10.57 23.77Q10.86 23.86 11.15 23.92Q11.57 24 12 24Q12.42 24 12.84 23.92Q13.13 23.86 13.42 23.77Q13.88 23.62 14.28 23.38Q14.52 23.25 14.74 23.08Q15.05 22.84 15.31 22.56Q15.58 22.26 15.8 21.9Q15.88 21.77 15.95 21.64Q16.26 21.04 16.39 20.34Q16.41 20.23 16.47 20.15Q16.53 20.07 16.62 20.01Q16.72 19.96 16.82 19.95Q16.91 19.94 17.02 19.98Q17.68 20.21 18.36 20.24Q18.51 20.25 18.67 20.25Q19.08 20.23 19.48 20.15Q19.85 20.06 20.21 19.92Q20.47 19.81 20.7 19.67Q21.12 19.44 21.48 19.11Q21.7 18.91 21.89 18.69Q22.16 18.37 22.38 17.99Q22.59 17.62 22.74 17.22Q22.83 16.94 22.9 16.65Q23 16.18 23 15.71Q22.99 15.43 22.96 15.16Q22.91 14.77 22.79 14.41Q22.67 14.02 22.47 13.65Q22.4 13.52 22.32 13.39Q21.95 12.82 21.42 12.36Q21.33 12.29 21.29 12.2Q21.25 12.11 21.25 12Q21.25 11.88 21.29 11.79Q21.33 11.7 21.42 11.63Q21.95 11.17 22.32 10.6Q22.4 10.47 22.47 10.34Q22.67 9.97 22.79 9.58Q22.91 9.22 22.96 8.83Q22.99 8.56 23 8.29Q23 7.81 22.9 7.34Q22.83 7.05 22.74 6.77Q22.59 6.37 22.38 6Q22.16 5.62 21.89 5.3Q21.7 5.08 21.48 4.88Q21.12 4.55 20.7 4.32Q20.47 4.18 20.21 4.07Q19.85 3.93 19.48 3.84Q19.08 3.76 18.67 3.74Q18.51 3.74 18.36 3.75Q17.68 3.78 17.02 4.01Q16.91 4.05 16.82 4.04Q16.72 4.03 16.62 3.98Q16.53 3.92 16.47 3.84Q16.41 3.76 16.39 3.65Q16.26 2.95 15.95 2.35Q15.88 2.22 15.8 2.09Q15.58 1.73 15.31 1.43Q15.05 1.15 14.74 0.91Q14.52 0.74 14.28 0.61Q13.88 0.37 13.42 0.22Q13.13 0.13 12.84 0.07Q12.42 0 12 0Q11.57 0 11.15 0.07Q10.86 0.13 10.57 0.22Q10.11 0.37 9.71 0.61Q9.47 0.74 9.25 0.91Q8.94 1.15 8.68 1.43Q8.41 1.73 8.19 2.09Q8.11 2.22 8.04 2.35ZM9.56 4.02C10.07 1.32 13.92 1.32 14.43 4.02C14.71 5.51 16.25 6.4 17.68 5.9C20.27 4.99 22.2 8.33 20.11 10.11C18.96 11.1 18.96 12.89 20.11 13.88C22.2 15.66 20.27 19 17.68 18.09C16.25 17.59 14.71 18.48 14.43 19.97C13.92 22.67 10.07 22.67 9.56 19.97C9.28 18.48 7.74 17.59 6.31 18.09C3.72 19 1.79 15.66 3.88 13.88C5.03 12.89 5.03 11.1 3.88 10.11C1.79 8.33 3.72 4.99 6.31 5.9C7.74 6.4 9.28 5.51 9.56 4.02Z" fill="#F8B319" fill-opacity="1.000000" fill-rule="evenodd"/>
	<circle id="Ellipse 9" r="3.000000" transform="matrix(-1 0 0 1 12 12)" stroke="#F8B319" stroke-opacity="1.000000" stroke-width="2.000000"/>
</svg>
