<svg width="24.000000" height="24.000000" viewBox="0 0 24 24" fill="none" xmlns="http://www.w3.org/2000/svg" xmlns:xlink="http://www.w3.org/1999/xlink">
	<desc>
			Created with Pixso.
	</desc>
	<defs/>
	<path id="Star 4" d="M15.27 7.5C15.41 7.91 15.79 8.2 16.23 8.22C18.11 8.28 23 8.55 23 9.66C23 10.74 19.52 13.48 18.09 14.55C17.74 14.82 17.59 15.28 17.73 15.7C18.31 17.5 19.7 22.14 18.81 22.88C17.93 23.6 14.17 20.75 12.65 19.53C12.27 19.22 11.72 19.22 11.34 19.52C9.81 20.75 6.06 23.6 5.25 22.88C4.41 22.14 5.73 17.48 6.28 15.69C6.4 15.28 6.26 14.82 5.91 14.56C4.49 13.49 1 10.75 1 9.66C1 8.55 5.89 8.28 7.77 8.22C8.2 8.2 8.58 7.92 8.72 7.51C9.32 5.7 10.99 1 12.03 1C13.06 1 14.69 5.69 15.27 7.5Z" stroke="#F9F9F9" stroke-opacity="1.000000" stroke-width="2.000000" stroke-linejoin="round"/>
</svg>
