<svg width="24" height="24" viewBox="0 0 24 24" fill="none" xmlns="http://www.w3.org/2000/svg">
<path d="M8.46777 8.39457L8.46552 8.3964L8.46338 8.39848L8.46777 8.39457ZM18.4219 8.20804C18.3523 8.14099 18.2751 8.08232 18.1919 8.03323C18.0741 7.9639 17.9433 7.91946 17.8076 7.90268C17.6719 7.88589 17.5343 7.89711 17.4031 7.93565C17.2719 7.97418 17.1501 8.03921 17.0451 8.12671C16.94 8.21421 16.8541 8.32233 16.7925 8.44437C16.448 9.12306 15.9729 9.72706 15.3945 10.2217C15.4829 9.72332 15.5275 9.21813 15.5278 8.71194C15.5296 7.17205 15.1234 5.65915 14.3504 4.32731C13.5775 2.99546 12.4654 1.89223 11.1274 1.12994C10.98 1.04639 10.8138 1.00165 10.6444 0.99993C10.4749 0.998205 10.3079 1.03955 10.1588 1.12009C10.0097 1.20062 9.88358 1.31771 9.79217 1.46036C9.70075 1.603 9.64707 1.76654 9.63617 1.93561C9.58021 2.88379 9.33233 3.81073 8.90756 4.66028C8.48279 5.50983 7.88996 6.2643 7.165 6.87797L6.93453 7.06547C6.17644 7.57556 5.50543 8.20438 4.94723 8.92777C4.07955 10.0209 3.47848 11.3011 3.19169 12.667C2.9049 14.0328 2.94028 15.4467 3.29503 16.7964C3.64977 18.1462 4.31412 19.3948 5.2354 20.4431C6.15667 21.4915 7.30953 22.3107 8.60254 22.836C8.75436 22.898 8.91911 22.9217 9.08226 22.9051C9.24542 22.8884 9.40195 22.8318 9.53807 22.7403C9.67419 22.6488 9.7857 22.5252 9.86277 22.3805C9.93984 22.2357 9.9801 22.0742 9.98 21.9102C9.97928 21.8041 9.96249 21.6988 9.9302 21.5977C9.70647 20.7567 9.64205 19.8813 9.74025 19.0166C10.6865 20.8014 12.2054 22.216 14.0528 23.0332C14.2782 23.1341 14.5332 23.1477 14.7681 23.0713C16.2277 22.6002 17.5425 21.7638 18.5877 20.6414C19.633 19.519 20.3738 18.148 20.74 16.6586C21.1061 15.1693 21.0853 13.611 20.6796 12.132C20.2739 10.6529 19.4967 9.30215 18.4219 8.20804ZM14.5171 21.0391C13.6454 20.5973 12.8765 19.977 12.2602 19.2186C11.644 18.4601 11.1943 17.5804 10.9404 16.6368C10.8629 16.319 10.8029 15.9972 10.7607 15.6729C10.7322 15.4663 10.6398 15.2739 10.4965 15.1224C10.3532 14.971 10.1661 14.8681 9.96143 14.8282C9.89838 14.8157 9.83426 14.8095 9.77 14.8096C9.59424 14.8096 9.42158 14.8558 9.26941 14.9438C9.11725 15.0318 8.99096 15.1583 8.9033 15.3106C8.07357 16.7417 7.6563 18.3746 7.69773 20.0284C6.96797 19.461 6.35808 18.7544 5.90341 17.9496C5.44873 17.1447 5.15832 16.2577 5.049 15.3398C4.93968 14.4219 5.01363 13.4914 5.26655 12.6023C5.51948 11.7132 5.94636 10.8831 6.52244 10.1602C6.95985 9.59206 7.48753 9.09952 8.08444 8.70222C8.11029 8.68554 8.13507 8.66728 8.15866 8.64753C8.15866 8.64753 8.45535 8.40205 8.46549 8.39643C9.89019 7.1914 10.9035 5.57195 11.3642 3.76374C12.4538 4.77098 13.1803 6.10977 13.431 7.57225C13.6816 9.03473 13.4424 10.5391 12.7505 11.8516C12.659 12.0268 12.6215 12.2251 12.6427 12.4215C12.6638 12.618 12.7427 12.8037 12.8693 12.9554C12.9959 13.1071 13.1646 13.2179 13.3541 13.2738C13.5436 13.3297 13.7454 13.3283 13.9341 13.2696C15.4658 12.7895 16.8138 11.8516 17.7964 10.5821C18.3869 11.4544 18.773 12.4487 18.9259 13.491C19.0787 14.5332 18.9944 15.5965 18.6792 16.6017C18.364 17.6068 17.826 18.5279 17.1054 19.2962C16.3847 20.0645 15.5 20.6603 14.5171 21.0391L14.5171 21.0391Z" fill="white"/>
</svg>
